<?xml version="1.0" encoding="utf-8"?>
<!-- Generator: Adobe Illustrator 21.0.0, SVG Export Plug-In . SVG Version: 6.00 Build 0)  -->
<svg version="1.1" id="Layer_1" xmlns="http://www.w3.org/2000/svg" xmlns:xlink="http://www.w3.org/1999/xlink" x="0px" y="0px"
	 viewBox="0 0 124.7 29.8" style="enable-background:new 0 0 124.7 29.8;" xml:space="preserve">
<style type="text/css">
	.st0{fill:#D3A97D;}
	.st1{fill:#CE633D;}
	.st2{fill:#353334;}
</style>
<g>
	<path class="st0" d="M15,19.9c-0.8,0.6-1.5,1.3-2.3,1.9c-0.5,0.4-0.9-0.5-0.5-0.9c0.6-0.5,1.2-1,1.8-1.5c-1.4-0.3-2.7-0.6-4.1-0.9
		c-0.6-0.1-0.3-1.1,0.2-1c0.7,0.1,1.3,0.3,2,0.5c-0.2-0.6-0.5-1.2-0.7-1.8c-0.2-0.6,0.6-1.1,0.8-0.5c0.3,0.8,0.6,1.5,0.9,2.3
		c0,0.1,0,0.2,0,0.3c2.6,0.6,5.1,1.2,7.7,1.8v-7.8c-0.1,0-0.1,0-0.2,0c-2.6-0.6-5.2-1.3-7.7-2.1c0,0-0.1,0.1-0.1,0.1
		c-0.9,0.3-1.7,0.7-2.6,1.1c-0.5,0.3-1-0.6-0.5-0.9c0.6-0.3,1.2-0.5,1.8-0.8C11,9.5,10.4,9.3,9.9,9.1c-0.6-0.2-0.3-1.2,0.2-1
		c2,0.7,3.9,1.3,5.9,1.8c-0.2-0.6-0.4-1.2-0.6-1.9c-0.2-0.6,0.7-0.9,0.9-0.3c0.2,0.8,0.5,1.6,0.8,2.4c1.3,0.3,2.5,0.7,3.8,1V6.7
		c0-0.5-0.3-0.9-0.7-1L5,2.2C4.4,2,3.9,2.5,3.9,3.1v20.7c0,0.5,0.3,0.9,0.7,1l11.7,2.7c2.4,0.6,4.6-1.4,4.6-4v-2.4
		c-1.9-0.5-3.8-0.9-5.8-1.4C15.1,19.8,15.1,19.9,15,19.9z M14.2,14.9c0-0.8,0.6-1.4,1.3-1.4h0.8v0.9c0,0.8-0.6,1.4-1.3,1.4h-0.7
		c0.3-0.6,0.7-1.2,1.3-1.6c0.1-0.1,0.2-0.2,0-0.1c-0.7,0.4-1.1,1-1.5,1.7V14.9z M17.4,7.8c0-0.8,0.6-1.4,1.3-1.4h0.8v0.9
		c0,0.8-0.6,1.4-1.3,1.4h-0.7c0.3-0.6,0.7-1.2,1.3-1.6c0.1-0.1,0.2-0.2,0-0.1c-0.7,0.4-1.1,1-1.5,1.7V7.8z M12,5.5l0.4-0.8l0.7,0.4
		c0.6,0.3,0.9,1.2,0.6,1.9l-0.3,0.7c-0.4-0.6-0.7-1.3-0.7-2c0-0.1-0.1-0.3-0.1-0.1c0,0.8,0.3,1.5,0.8,2.2l-0.7-0.4
		C12,7,11.7,6.2,12,5.5z M7.4,4.9h0.8c0.7,0,1.3,0.6,1.3,1.4v0.9C9.2,6.5,8.7,5.8,8.1,5.4C7.9,5.3,8,5.5,8.1,5.6
		c0.6,0.4,1,1,1.3,1.6H8.7C8,7.2,7.4,6.6,7.4,5.8V4.9z M5.8,11.1C6,10.4,6.7,10,7.4,10.2L8,10.5c-0.5,0.5-1,0.9-1.7,1.1
		c-0.1,0-0.2,0.2,0,0.1c0.8-0.2,1.4-0.6,1.9-1.1l-0.2,0.8c-0.2,0.7-0.9,1.1-1.6,0.9L5.5,12L5.8,11.1z M6,16.3l0.8-0.4
		c0.6-0.3,1.4,0,1.7,0.6l0.3,0.7c-0.7,0-1.4-0.2-1.9-0.6c-0.1-0.1-0.3-0.1-0.1,0.1c0.6,0.5,1.3,0.7,2.1,0.7l-0.7,0.4
		c-0.6,0.3-1.4,0-1.7-0.6L6,16.3z M8.8,20.9c-0.1,0.8-0.7,1.3-1.4,1.2l-0.8-0.1L6.7,21c0.1-0.8,0.7-1.3,1.4-1.2L8.9,20
		c-0.7,0.3-1.3,0.7-1.8,1.4c-0.1,0.2,0.1,0.1,0.1,0c0.4-0.6,1-1,1.6-1.2L8.8,20.9z M8.9,13.7v-0.9h0.8c0.7,0,1.3,0.6,1.3,1.4V15
		c-0.4-0.7-0.8-1.3-1.5-1.7c-0.2-0.1-0.1,0.1,0,0.1c0.6,0.4,1,1,1.3,1.6h-0.7C9.5,15.1,8.9,14.4,8.9,13.7z M13,25.5l-0.6,0.6
		l-0.6-0.7c-0.5-0.6-0.5-1.4,0.1-2l0.6-0.6c-0.2,0.8-0.3,1.6-0.1,2.4c0,0.2,0.1,0,0.1-0.1c-0.2-0.7,0-1.5,0.2-2.1l0.5,0.5
		C13.5,24.1,13.5,24.9,13,25.5z"/>
	<path class="st1" d="M28.8,19.7c-1.9,0.5-3.8,0.9-5.8,1.4v2.4c0,2.6,2.2,4.6,4.6,4l11.7-2.7c0.4-0.1,0.7-0.5,0.7-1V3.1
		c0-0.6-0.5-1.1-1.1-1L23.8,5.8c-0.4,0.1-0.7,0.5-0.7,1v4.5c1.3-0.3,2.6-0.6,3.8-1c0.3-0.8,0.5-1.6,0.8-2.4c0.2-0.6,1.1-0.4,0.9,0.3
		C28.4,8.8,28.2,9.4,28,10c2-0.6,4-1.2,5.9-1.8c0.6-0.2,0.8,0.8,0.2,1c-0.6,0.2-1.2,0.4-1.8,0.6c0.6,0.3,1.2,0.5,1.8,0.8
		c0.5,0.3,0.1,1.1-0.5,0.9c-0.8-0.4-1.7-0.8-2.6-1.1c-0.1,0-0.1-0.1-0.1-0.1c-2.5,0.8-5.1,1.5-7.7,2.1c-0.1,0-0.2,0-0.2,0v7.8
		c2.6-0.6,5.1-1.2,7.7-1.8c0-0.1,0-0.2,0-0.3c0.3-0.8,0.6-1.5,0.9-2.3c0.2-0.6,1-0.1,0.8,0.5c-0.2,0.6-0.5,1.2-0.7,1.8
		c0.7-0.2,1.3-0.3,2-0.5c0.6-0.1,0.8,0.8,0.2,1c-1.4,0.3-2.7,0.6-4.1,0.9c0.6,0.5,1.2,1,1.8,1.5c0.5,0.4,0,1.3-0.5,0.9
		c-0.8-0.6-1.5-1.3-2.3-1.9C28.9,19.9,28.9,19.8,28.8,19.7z M29.7,15.8c-0.4-0.7-0.8-1.3-1.5-1.7c-0.2-0.1-0.1,0.1,0,0.1
		c0.6,0.4,1,1,1.3,1.6h-0.7c-0.7,0-1.3-0.6-1.3-1.4v-0.9h0.8c0.7,0,1.3,0.6,1.3,1.4V15.8z M26.6,8.7C26.2,8,25.8,7.4,25.1,7
		c-0.2-0.1-0.1,0.1,0,0.1c0.6,0.4,1,1,1.3,1.6h-0.7c-0.7,0-1.3-0.6-1.3-1.4V6.4h0.8c0.7,0,1.3,0.6,1.3,1.4V8.7z M31.4,7.3l-0.7,0.4
		c0.4-0.7,0.7-1.4,0.8-2.2c0-0.2-0.1-0.1-0.1,0.1c0,0.7-0.4,1.4-0.7,2l-0.3-0.7c-0.3-0.7-0.1-1.5,0.6-1.9l0.7-0.4l0.4,0.8
		C32.3,6.2,32,7,31.4,7.3z M36.5,5.8c0,0.8-0.6,1.4-1.3,1.4h-0.7c0.3-0.6,0.7-1.2,1.3-1.6c0.1-0.1,0.2-0.2,0-0.1
		c-0.7,0.4-1.1,1-1.5,1.7V6.3c0-0.8,0.6-1.4,1.3-1.4h0.8V5.8z M38.4,12l-0.8,0.3c-0.7,0.2-1.4-0.2-1.6-0.9l-0.2-0.8
		c0.6,0.5,1.2,1,1.9,1.1c0.2,0,0.1-0.1,0-0.1c-0.7-0.1-1.2-0.6-1.7-1.1l0.6-0.2c0.7-0.2,1.4,0.2,1.6,0.9L38.4,12z M37.6,17.1
		c-0.3,0.7-1.1,1-1.7,0.6l-0.7-0.4c0.7-0.1,1.5-0.2,2.1-0.7c0.2-0.1,0-0.1-0.1-0.1c-0.6,0.4-1.2,0.6-1.9,0.6l0.3-0.7
		c0.3-0.7,1.1-1,1.7-0.6l0.8,0.4L37.6,17.1z M35.1,20.1c0.6,0.3,1.2,0.6,1.6,1.2c0.1,0.1,0.2,0.1,0.1,0c-0.5-0.7-1.1-1.1-1.8-1.4
		l0.8-0.1c0.7-0.1,1.3,0.4,1.4,1.2l0.1,0.9l-0.8,0.1c-0.7,0.1-1.3-0.4-1.4-1.2L35.1,20.1z M33.8,15.1h-0.7c0.3-0.6,0.7-1.2,1.3-1.6
		c0.1-0.1,0.2-0.2,0-0.1c-0.7,0.4-1.1,1-1.5,1.7v-0.9c0-0.8,0.6-1.4,1.3-1.4H35v0.9C35,14.4,34.5,15.1,33.8,15.1z M30.9,23.5
		l0.5-0.5c0.2,0.7,0.4,1.4,0.2,2.1c0,0.1,0,0.3,0.1,0.1c0.2-0.8,0.1-1.6-0.1-2.4l0.6,0.6c0.5,0.5,0.5,1.4,0.1,2l-0.6,0.7L31,25.5
		C30.5,24.9,30.5,24.1,30.9,23.5z"/>
	<g>
		<path class="st1" d="M51.8,6.5c-0.3-0.2-0.6-0.4-0.9-0.7s-0.5-0.6-0.6-0.8c-0.1,0.3-0.3,0.6-0.6,1c-0.3,0.3-0.6,0.6-0.9,0.8
			l-0.4-0.3c0.4-0.2,0.8-0.6,1.1-1S50,4.4,50,3.9V3.7h-1.4V3.3h3.2v0.4h-1.4v0.2c0,0.4,0.2,0.8,0.5,1.3s0.7,0.7,1.1,0.9L51.8,6.5z
			 M49.6,9V7h0.5v1.6h3.6V9H49.6z M53,7.4V5h-1.5V4.5H53V2.9h0.5v4.5H53z"/>
		<path class="st1" d="M58.2,6.7v2.5h-0.5V6.7H55V6.3h5.8v0.4H58.2z M60.3,5.5c-0.5-0.1-1-0.2-1.4-0.5c-0.5-0.3-0.8-0.6-0.9-0.8
			C57.8,4.5,57.5,4.7,57,5c-0.5,0.3-0.9,0.5-1.5,0.6l-0.3-0.4c0.6-0.1,1.1-0.2,1.6-0.5c0.5-0.3,0.8-0.6,0.8-1h-2V3.2h4.5v0.4h-2
			c0.1,0.4,0.3,0.7,0.8,1s1,0.5,1.6,0.5L60.3,5.5z"/>
	</g>
</g>
<g>
	<path class="st2" d="M48.4,15.3v-0.8h3v-1.5h0.9v1.5h3v0.8H48.4z M51.9,20.3c-0.9,0-1.6-0.2-2.1-0.6c-0.5-0.4-0.8-1-0.8-1.6
		c0-0.6,0.3-1.1,0.8-1.6s1.2-0.6,2.1-0.6c0.9,0,1.6,0.2,2.1,0.6s0.8,0.9,0.8,1.6c0,0.6-0.3,1.1-0.8,1.6
		C53.5,20.1,52.8,20.3,51.9,20.3z M51.9,16.7c-0.6,0-1.1,0.1-1.5,0.4c-0.4,0.3-0.5,0.6-0.5,1c0,0.4,0.2,0.8,0.5,1
		c0.4,0.3,0.8,0.4,1.5,0.4c0.6,0,1.1-0.1,1.5-0.4c0.4-0.3,0.5-0.6,0.5-1c0-0.4-0.2-0.8-0.5-1C53,16.8,52.5,16.7,51.9,16.7z
		 M50.4,24.4v-3.2h0.9v2.4h6.6v0.8H50.4z M57.5,18.2v3.4h-0.9v-8.7h0.9v4.5h1.8v0.8H57.5z"/>
	<path class="st2" d="M67.3,21.7c-0.7-0.6-1.3-1.2-1.9-1.9c-0.5-0.7-0.9-1.3-1-1.9c-0.2,0.6-0.5,1.3-1.1,2s-1.1,1.4-1.8,1.9
		l-0.7-0.6c0.9-0.6,1.7-1.5,2.2-2.5s0.8-2.1,0.8-3.1v-1h-2.6v-0.8h6.2v0.8h-2.6v0.9c0,1,0.3,2.1,0.9,3.1c0.6,1,1.3,1.8,2.2,2.3
		L67.3,21.7z M69.5,24.6V12.9h0.9v11.7H69.5z"/>
	<path class="st2" d="M78.3,22.1v-2.4h-5.1v-0.8h10.9v0.8h-4.9v2.4H78.3z M74.9,24.2v-3.5h0.9v2.7h6.7v0.8H74.9z M75,17.5v-4.2h7.2
		v4.2H75z M81.3,14.1h-5.4v2.6h5.4V14.1z"/>
	<path class="st2" d="M89.9,20.1v1.7c1.4,0,2.6-0.1,3.5-0.1l0.1,0.8c-2.1,0.1-4.8,0.2-7.9,0.2l-0.1-0.8c1.1,0,2.2,0,3.5,0v-1.7
		c-0.8-0.1-1.4-0.3-1.8-0.7c-0.4-0.4-0.6-0.9-0.6-1.4c0-0.6,0.3-1.1,0.8-1.6c0.5-0.4,1.2-0.6,2.2-0.6c0.9,0,1.6,0.2,2.1,0.6
		c0.5,0.4,0.8,0.9,0.8,1.5c0,0.6-0.2,1.1-0.7,1.5S90.7,20,89.9,20.1z M89,12.9h0.9v1.5h3v0.8h-7v-0.8H89V12.9z M89.4,16.6
		c-0.6,0-1.1,0.1-1.5,0.4c-0.4,0.3-0.5,0.6-0.5,1s0.2,0.7,0.5,1c0.4,0.3,0.9,0.4,1.5,0.4c0.6,0,1.1-0.1,1.5-0.4
		c0.4-0.3,0.5-0.6,0.5-1c0-0.4-0.2-0.7-0.5-1C90.6,16.8,90.1,16.6,89.4,16.6z M95,18.9v5.7h-0.9V12.9H95v5.2h1.8v0.8H95z"/>
	<path class="st2" d="M106.2,24.6v-3.2h-6.6v-0.8h3.4v-1.4h-5v-0.8h10.9v0.8h-5v1.4h3.2v4H106.2z M107.9,17.4
		c-0.9-0.1-1.8-0.3-2.6-0.8s-1.5-0.8-1.7-1.2c-0.3,0.4-0.9,0.8-1.7,1.2c-0.9,0.4-1.7,0.7-2.6,0.7l-0.5-0.8c0.9,0,1.7-0.2,2.6-0.6
		c0.9-0.4,1.5-0.8,1.7-1.4h-3.6v-0.8h3.7v-1.1h0.9v1.1h3.7v0.8H104c0.2,0.5,0.8,1,1.7,1.4c0.9,0.4,1.8,0.5,2.6,0.5L107.9,17.4z"/>
	<path class="st2" d="M115.8,21.8c-1-1-1.8-2.3-2.2-3.7c-0.1,0.6-0.4,1.2-0.9,2c-0.5,0.7-0.9,1.4-1.5,1.9l-0.7-0.6
		c0.7-0.5,1.3-1.3,1.8-2.3s0.8-2.1,0.8-3.1v-1.3h-2.2v-0.8h5.3v0.8H114v1.4c0,1,0.2,1.9,0.7,2.9s1,1.7,1.7,2.3L115.8,21.8z
		 M117.4,24.2v-6.5h-2v-0.8h2v-3.8h0.9v11.1H117.4z M119.5,24.6V12.9h0.9v11.7H119.5z"/>
</g>
</svg>
